#!OML:ASF X:\für Bonn\!DataBase\2005_08_12_Daniel\c3d\Daniel.ASF
:FULLY-SPECIFIED
:DEGREES
184
root -0.713166 17.8443 0.186709 -23.7069 -80.959 15.1363
lowerback 8.38186 1.7489 1.80703
upperback -6.11479 1.96816 -4.98685
thorax -11.0935 0.506913 -6.80138
lowerneck 11.1685 -4.06275 -1.32595
upperneck 4.72922 -5.77191 2.42762
head -0.263524 -3.02303 1.1703
rclavicle 3.97569e-015 0
rhumerus -92.2691 -186.089 -17.2488
rradius 12.8452
rwrist 164.855
rhand -9.84528 368.336
rfingers 7.12502
rthumb 16.1326 -21.0125
lclavicle 3.97569e-015 0
lhumerus -121.496 207.345 -107.34
lradius 73.7808
lwrist 25.5551
lhand -23.0558 367.534
lfingers 7.12502
lthumb 3.38923 37.4871
rfemur 11.4734 19.4965 19.9157
rtibia 25.2952
rfoot -35.3362 -25.8696
rtoes 2.10802
lfemur -8.09648 -15.615 -17.8355
ltibia 39.5789
lfoot -0.593466 0.458057
ltoes 12.3896
185
root -0.698406 17.8395 0.188198 -24.0774 -81.1118 15.3876
lowerback 8.43752 1.71269 1.80633
upperback -5.93752 1.93343 -4.94756
thorax -10.9321 0.503834 -6.74392
lowerneck 11.3494 -3.96972 -1.24269
upperneck 4.72367 -5.64346 2.48648
head -0.298508 -2.96112 1.17624
rclavicle 2.46493e-014 4.77083e-015
rhumerus -92.0419 -185.732 -15.6789
rradius 12.6563
rwrist 163.174
rhand -11.2974 368.941
rfingers 7.12502
rthumb 14.734 -20.5158
lclavicle 2.46493e-014 4.77083e-015
lhumerus -121.788 207.396 -107.493
lradius 73.8788
lwrist 25.8818
lhand -23.4512 367.447
lfingers 7.12502
lthumb 3.00732 37.4054
rfemur 11.3628 19.0671 19.6758
rtibia 25.4035
rfoot -34.6101 -25.7413
rtoes 1.93006
lfemur -8.00033 -15.4387 -17.8519
ltibia 39.6311
lfoot -0.677371 0.416034
ltoes 12.3101
186
root -0.683951 17.8337 0.189958 -24.4496 -81.2415 15.6515
lowerback 8.49965 1.66892 1.80175
upperback -5.7841 1.88531 -4.91686
thorax -10.8035 0.491898 -6.69359
lowerneck 11.534 -3.87696 -1.1362
upperneck 4.76131 -5.51406 2.50556
head -0.321959 -2.89839 1.16476
rclavicle 0 6.52014e-014
rhumerus -91.8068 -185.344 -13.8471
rradius 12.4435
rwrist 161.18
rhand -12.3901 369.46
rfingers 7.12502
rthumb 13.681 -20.0704
lclavicle 0 6.52014e-014
lhumerus -122.132 207.441 -107.627
lradius 73.9651
lwrist 26.2134
lhand -23.7958 367.252
lfingers 7.12502
lthumb 2.67457 37.2147
rfemur 11.2369 18.5588 19.402
rtibia 25.5139
rfoot -33.871 -25.555
rtoes 1.77694
lfemur -7.92067 -15.2789 -17.8733
ltibia 39.6844
lfoot -0.789199 0.370688
ltoes 12.2068
187
root -0.670864 17.8288 0.191471 -24.8093 -81.3626 15.9248
lowerback 8.54523 1.62945 1.77126
upperback -5.66096 1.83947 -4.87164
thorax -10.7 0.481863 -6.6136
lowerneck 11.7123 -3.78317 -1.07661
upperneck 4.87266 -5.39259 2.5412
head -0.319123 -2.84121 1.1648
rclavicle 4.13472e-014 -1.90833e-014
rhumerus -91.6054 -184.956 -12.0027
rradius 12.2428
rwrist 159.212
rhand -13.1551 369.87
rfingers 7.12502
rthumb 12.9437 -19.7084
lclavicle 4.13472e-014 -1.90833e-014
lhumerus -122.511 207.489 -107.729
lradius 74.055
lwrist 26.495
lhand -24.0591 367.05
lfingers 7.12502
lthumb 2.42027 37.0164
rfemur 11.0924 18.0366 19.1186
rtibia 25.6339
rfoot -33.1035 -25.4062
rtoes 1.5935
lfemur -7.84565 -15.13 -17.8947
ltibia 39.7242
lfoot -0.909586 0.309911
ltoes 12.1731
188
root -0.657906 17.8236 0.193576 -25.1252 -81.4965 16.1485
lowerback 8.59626 1.59412 1.78844
upperback -5.53186 1.80223 -4.85755
thorax -10.5902 0.470907 -6.59708
lowerneck 11.8559 -3.70369 -0.936306
upperneck 4.96887 -5.27874 2.55644
head -0.317444 -2.7858 1.14427
rclavicle 5.32743e-014 -7.31528e-014
rhumerus -91.3923 -184.585 -10.1376
rradius 12.0427
rwrist 157.104
rhand -13.6748 370.173
rfingers 7.12502
rthumb 12.4427 -19.4368
lclavicle 5.32743e-014 -7.31528e-014
lhumerus -122.846 207.554 -107.922
lradius 74.1333
lwrist 26.7295
lhand -24.2328 366.785
lfingers 7.12502
lthumb 2.25253 36.753
rfemur 10.9504 17.4573 18.8287
rtibia 25.7539
rfoot -32.3166 -25.1972
rtoes 1.37095
lfemur -7.74439 -15.0171 -17.922
ltibia 39.7546
lfoot -1.05727 0.268668
ltoes 12.0997
189
root -0.646001 17.8186 0.194808 -25.6645 -81.6318 16.6187
lowerback 8.61856 1.55983 1.73468
upperback -5.40968 1.75858 -4.8225
thorax -10.4742 0.463006 -6.51431
lowerneck 11.9661 -3.61513 -0.833057
upperneck 5.10589 -5.15813 2.54189
head -0.297102 -2.72684 1.11855
rclavicle 2.38542e-015 3.97569e-014
rhumerus -91.2501 -184.237 -8.42068
rradius 11.8162
rwrist 155.087
rhand -13.9955 370.336
rfingers 7.12502
rthumb 12.1335 -19.2924
lclavicle 2.38542e-015 3.97569e-014
lhumerus -123.202 207.563 -108.033
lradius 74.1977
lwrist 26.8492
lhand -24.2198 366.509
lfingers 7.12502
lthumb 2.26505 36.4765
rfemur 10.7957 16.9348 18.5225
rtibia 25.8753
rfoot -31.5749 -25.0135
rtoes 1.04451
lfemur -7.64857 -14.8723 -17.9721
ltibia 39.7678
lfoot -1.26676 0.229902
ltoes 11.9426
190
root -0.633024 17.8123 0.196132 -26.1357 -81.7384 17.0038
lowerback 8.67771 1.52656 1.70437
upperback -5.29633 1.71673 -4.80602
thorax -10.389 0.451755 -6.46862
lowerneck 12.1014 -3.54666 -0.705844
upperneck 5.22569 -5.06096 2.53428
head -0.286044 -2.6796 1.09278
rclavicle 3.61788e-014 -3.18055e-015
rhumerus -91.0705 -183.897 -6.88699
rradius 11.5525
rwrist 153.221
rhand -14.2202 370.379
rfingers 7.12502
rthumb 11.9168 -19.2622
lclavicle 3.61788e-014 -3.18055e-015
lhumerus -123.559 207.618 -108.12
lradius 74.2333
lwrist 26.7861
lhand -24.0103 366.252
lfingers 7.12502
lthumb 2.46744 36.2174
rfemur 10.679 16.4085 18.2405
rtibia 25.9967
rfoot -30.9552 -24.7832
rtoes 0.802751
lfemur -7.5281 -14.8121 -18.0391
ltibia 39.7714
lfoot -1.49361 0.222474
ltoes 11.955
191
root -0.620724 17.8067 0.197262 -26.657 -81.8554 17.4588
lowerback 8.71598 1.48536 1.66141
upperback -5.19357 1.66241 -4.78472
thorax -10.3052 0.43512 -6.40772
lowerneck 12.2186 -3.45634 -0.594943
upperneck 5.38858 -4.93879 2.52825
head -0.258234 -2.62021 1.06804
rclavicle 6.36111e-015 -1.35174e-014
rhumerus -90.9076 -183.533 -5.2227
rradius 11.2276
rwrist 151.171
rhand -14.3894 370.336
rfingers 7.12502
rthumb 11.7536 -19.3145
lclavicle 6.36111e-015 -1.35174e-014
lhumerus -123.915 207.638 -108.201
lradius 74.2619
lwrist 26.6199
lhand -23.77 366.042
lfingers 7.12502
lthumb 2.69949 36.0043
rfemur 10.5485 15.9356 17.9699
rtibia 26.1182
rfoot -30.3207 -24.6217
rtoes 0.480282
lfemur -7.42719 -14.7001 -18.0993
ltibia 39.7684
lfoot -1.74835 0.18019
ltoes 11.8217
